<svg xmlns="http://www.w3.org/2000/svg" viewBox="0 0 600 450" width="600" height="450"><defs><filter id="c9glow" x="-50%" y="-50%" width="200%" height="200%"><feGaussianBlur stdDeviation="4" result="b"/><feMerge><feMergeNode in="b"/><feMergeNode in="b"/><feMergeNode in="SourceGraphic"/></feMerge></filter><radialGradient id="c9bg" cx="50%" cy="40%" r="75%"><stop offset="0" stop-color="#3a4a3c"/><stop offset="1" stop-color="#18201a"/></radialGradient><radialGradient id="c9g1" cx="35%" cy="28%" r="80%"><stop offset="0" stop-color="#8A7E98"/><stop offset=".45" stop-color="#3C3644"/><stop offset="1" stop-color="#15121A"/></radialGradient><radialGradient id="c9g2" cx="35%" cy="28%" r="80%"><stop offset="0" stop-color="#9A8EA8"/><stop offset=".45" stop-color="#4A4454"/><stop offset="1" stop-color="#1A1620"/></radialGradient><radialGradient id="c9g3" cx="35%" cy="28%" r="80%"><stop offset="0" stop-color="#6A5A7A"/><stop offset=".45" stop-color="#241C2A"/><stop offset="1" stop-color="#0A080E"/></radialGradient><radialGradient id="c9g4" cx="35%" cy="28%" r="80%"><stop offset="0" stop-color="#6A5A7A"/><stop offset=".45" stop-color="#241C2A"/><stop offset="1" stop-color="#0A080E"/></radialGradient></defs><rect width="600" height="450" fill="url(#c9bg)"/><rect y="392" width="600" height="58" fill="#2a2a20" opacity=".6"/><ellipse cx="300" cy="392" rx="240" ry="14" fill="#000" opacity=".28"/><path d="M218,318 L208,388 L270,388 L262,318 Z" fill="url(#c9g2)" stroke="#1c1224" stroke-width="3" stroke-linejoin="round" stroke-linecap="round" /><path d="M330,318 L322,388 L386,388 L378,318 Z" fill="url(#c9g2)" stroke="#1c1224" stroke-width="3" stroke-linejoin="round" stroke-linecap="round" /><path d="M170,170 L132,260" fill="none" stroke="#1c1224" stroke-width="60.0" stroke-linejoin="round" stroke-linecap="round" /><path d="M170,170 L132,260" fill="none" stroke="#2E2A36" stroke-width="54.0" stroke-linejoin="round" stroke-linecap="round" /><path d="M132,260 L118,330" fill="none" stroke="#1c1224" stroke-width="56.0" stroke-linejoin="round" stroke-linecap="round" /><path d="M132,260 L118,330" fill="none" stroke="#2E2A36" stroke-width="50.0" stroke-linejoin="round" stroke-linecap="round" /><path d="M84,318 C80,296 110,286 138,290 C166,296 170,330 158,378 C130,392 94,388 86,370 Z" fill="url(#c9g2)" stroke="#1c1224" stroke-width="3" stroke-linejoin="round" stroke-linecap="round" /><g filter="url(#c9glow)"><path d="M198,128 L214,68 L230,128 Z" fill="#B06AF0" stroke="#1c1224" stroke-width="2"/></g><g filter="url(#c9glow)"><path d="M234,128 L250,44 L266,128 Z" fill="#B06AF0" stroke="#1c1224" stroke-width="2"/></g><g filter="url(#c9glow)"><path d="M276,128 L292,32 L308,128 Z" fill="#B06AF0" stroke="#1c1224" stroke-width="2"/></g><g filter="url(#c9glow)"><path d="M318,128 L334,48 L350,128 Z" fill="#B06AF0" stroke="#1c1224" stroke-width="2"/></g><g filter="url(#c9glow)"><path d="M354,128 L370,70 L386,128 Z" fill="#B06AF0" stroke="#1c1224" stroke-width="2"/></g><path d="M150,190 C140,120 220,90 300,92 C390,94 460,124 452,196 C446,260 420,320 360,332 C300,344 230,340 190,312 C160,290 154,240 150,190 Z" fill="url(#c9g1)" stroke="#1c1224" stroke-width="3" stroke-linejoin="round" stroke-linecap="round" /><g filter="url(#c9glow)"><path d="M190,160 L214,190 L204,230 L230,262 M404,150 L380,186 L394,222 L372,262 L382,300 M236,300 L262,286 L290,306 M170,250 L196,264" fill="none" stroke="#FF6A1A" stroke-width="4" stroke-linejoin="round"/></g><circle cx="300" cy="206" r="44" fill="none" stroke="#1c1224" stroke-width="12"/><circle cx="300" cy="206" r="44" fill="none" stroke="#5A5C64" stroke-width="7"/><g filter="url(#c9glow)"><path d="M300,164 L330,206 L300,250 L270,206 Z" fill="#FF9A3A"/><path d="M300,180 L316,206 L300,232 L284,206 Z" fill="#FFF0A0"/></g><ellipse cx="196" cy="150" rx="5" ry="10" fill="none" stroke="#1c1224" stroke-width="7"/><ellipse cx="196" cy="150" rx="5" ry="10" fill="none" stroke="#8A8C94" stroke-width="3.5"/><ellipse cx="222" cy="174" rx="10" ry="5" fill="none" stroke="#1c1224" stroke-width="7"/><ellipse cx="222" cy="174" rx="10" ry="5" fill="none" stroke="#8A8C94" stroke-width="3.5"/><ellipse cx="248" cy="190" rx="5" ry="10" fill="none" stroke="#1c1224" stroke-width="7"/><ellipse cx="248" cy="190" rx="5" ry="10" fill="none" stroke="#8A8C94" stroke-width="3.5"/><ellipse cx="274" cy="214" rx="10" ry="5" fill="none" stroke="#1c1224" stroke-width="7"/><ellipse cx="274" cy="214" rx="10" ry="5" fill="none" stroke="#8A8C94" stroke-width="3.5"/><ellipse cx="300" cy="230" rx="5" ry="10" fill="none" stroke="#1c1224" stroke-width="7"/><ellipse cx="300" cy="230" rx="5" ry="10" fill="none" stroke="#8A8C94" stroke-width="3.5"/><ellipse cx="326" cy="254" rx="10" ry="5" fill="none" stroke="#1c1224" stroke-width="7"/><ellipse cx="326" cy="254" rx="10" ry="5" fill="none" stroke="#8A8C94" stroke-width="3.5"/><ellipse cx="352" cy="270" rx="5" ry="10" fill="none" stroke="#1c1224" stroke-width="7"/><ellipse cx="352" cy="270" rx="5" ry="10" fill="none" stroke="#8A8C94" stroke-width="3.5"/><ellipse cx="378" cy="294" rx="10" ry="5" fill="none" stroke="#1c1224" stroke-width="7"/><ellipse cx="378" cy="294" rx="10" ry="5" fill="none" stroke="#8A8C94" stroke-width="3.5"/><ellipse cx="404" cy="310" rx="5" ry="10" fill="none" stroke="#1c1224" stroke-width="7"/><ellipse cx="404" cy="310" rx="5" ry="10" fill="none" stroke="#8A8C94" stroke-width="3.5"/><ellipse cx="300.0" cy="124.0" rx="48.0" ry="38.0" transform="rotate(0 300.0 124.0)" fill="url(#c9g2)" stroke="#1c1224" stroke-width="3" /><path d="M270,104 C224,64 190,110 216,150 C234,174 256,150 238,132 C226,120 242,100 264,118 Z" fill="url(#c9g3)" stroke="#1c1224" stroke-width="3" stroke-linejoin="round" stroke-linecap="round" /><path d="M250,94 l-6,8" fill="none" stroke="#5A4A6A" stroke-width="2" stroke-linejoin="round" stroke-linecap="round" /><path d="M238,98 l-6,8" fill="none" stroke="#5A4A6A" stroke-width="2" stroke-linejoin="round" stroke-linecap="round" /><path d="M226,102 l-6,8" fill="none" stroke="#5A4A6A" stroke-width="2" stroke-linejoin="round" stroke-linecap="round" /><path d="M214,106 l-6,8" fill="none" stroke="#5A4A6A" stroke-width="2" stroke-linejoin="round" stroke-linecap="round" /><path d="M330,104 C376,64 410,110 384,150 C366,174 344,150 362,132 C374,120 358,100 336,118 Z" fill="url(#c9g4)" stroke="#1c1224" stroke-width="3" stroke-linejoin="round" stroke-linecap="round" /><path d="M350,94 l6,8" fill="none" stroke="#5A4A6A" stroke-width="2" stroke-linejoin="round" stroke-linecap="round" /><path d="M362,98 l6,8" fill="none" stroke="#5A4A6A" stroke-width="2" stroke-linejoin="round" stroke-linecap="round" /><path d="M374,102 l6,8" fill="none" stroke="#5A4A6A" stroke-width="2" stroke-linejoin="round" stroke-linecap="round" /><path d="M386,106 l6,8" fill="none" stroke="#5A4A6A" stroke-width="2" stroke-linejoin="round" stroke-linecap="round" /><g filter="url(#c9glow)"><path d="M280,122 L294,126 L282,132 Z M320,122 L306,126 L318,132 Z" fill="#FFB04A"/></g><path d="M272,140 L328,140 L322,156 L278,156 Z" fill="#1E1A24" stroke="#1c1224" stroke-width="2.5" stroke-linejoin="round" stroke-linecap="round" /><path d="M282,140 l4,8 l4,-8 Z" fill="#E8DCC8" stroke="#1c1224" stroke-width="1" stroke-linejoin="round" stroke-linecap="round" /><path d="M294,140 l4,8 l4,-8 Z" fill="#E8DCC8" stroke="#1c1224" stroke-width="1" stroke-linejoin="round" stroke-linecap="round" /><path d="M306,140 l4,8 l4,-8 Z" fill="#E8DCC8" stroke="#1c1224" stroke-width="1" stroke-linejoin="round" stroke-linecap="round" /><path d="M318,140 l4,8 l4,-8 Z" fill="#E8DCC8" stroke="#1c1224" stroke-width="1" stroke-linejoin="round" stroke-linecap="round" /><ellipse cx="176.0" cy="160.0" rx="58.0" ry="44.0" transform="rotate(0 176.0 160.0)" fill="url(#c9g2)" stroke="#1c1224" stroke-width="3" /><path d="M126,140 Q176,104 226,140 L216,150 Q176,124 136,150 Z" fill="#5A606C" stroke="#1c1224" stroke-width="2.5" stroke-linejoin="round" stroke-linecap="round" /><path d="M146,128 l4,-26 l8,24 Z" fill="#9A9CA4" stroke="#1c1224" stroke-width="2" stroke-linejoin="round" stroke-linecap="round" /><path d="M176,124 l4,-26 l8,24 Z" fill="#9A9CA4" stroke="#1c1224" stroke-width="2" stroke-linejoin="round" stroke-linecap="round" /><path d="M206,128 l4,-26 l8,24 Z" fill="#9A9CA4" stroke="#1c1224" stroke-width="2" stroke-linejoin="round" stroke-linecap="round" /><ellipse cx="430.0" cy="160.0" rx="58.0" ry="44.0" transform="rotate(0 430.0 160.0)" fill="url(#c9g2)" stroke="#1c1224" stroke-width="3" /><path d="M380,140 Q430,104 480,140 L470,150 Q430,124 390,150 Z" fill="#5A606C" stroke="#1c1224" stroke-width="2.5" stroke-linejoin="round" stroke-linecap="round" /><path d="M400,128 l4,-26 l8,24 Z" fill="#9A9CA4" stroke="#1c1224" stroke-width="2" stroke-linejoin="round" stroke-linecap="round" /><path d="M430,124 l4,-26 l8,24 Z" fill="#9A9CA4" stroke="#1c1224" stroke-width="2" stroke-linejoin="round" stroke-linecap="round" /><path d="M460,128 l4,-26 l8,24 Z" fill="#9A9CA4" stroke="#1c1224" stroke-width="2" stroke-linejoin="round" stroke-linecap="round" /><path d="M432,176 L474,258" fill="none" stroke="#1c1224" stroke-width="62.0" stroke-linejoin="round" stroke-linecap="round" /><path d="M432,176 L474,258" fill="none" stroke="#3C3644" stroke-width="56.0" stroke-linejoin="round" stroke-linecap="round" /><path d="M474,258 L482,318" fill="none" stroke="#1c1224" stroke-width="58.0" stroke-linejoin="round" stroke-linecap="round" /><path d="M474,258 L482,318" fill="none" stroke="#3C3644" stroke-width="52.0" stroke-linejoin="round" stroke-linecap="round" /><ellipse cx="480" cy="296" rx="34" ry="14" fill="#5A5C64" stroke="#1c1224" stroke-width="3"/><path d="M444,324 C440,300 470,290 500,294 C530,300 536,330 526,376 C498,392 460,390 450,372 Z" fill="url(#c9g2)" stroke="#1c1224" stroke-width="3" stroke-linejoin="round" stroke-linecap="round" /><g filter="url(#c9glow)"><path d="M470,330 L484,350 L476,370 M500,316 L494,340" stroke="#FF6A1A" stroke-width="3.5" fill="none"/></g><ellipse cx="506" cy="318" rx="6" ry="10" fill="none" stroke="#8A8C94" stroke-width="3"/><ellipse cx="506" cy="336" rx="6" ry="10" fill="none" stroke="#8A8C94" stroke-width="3"/><ellipse cx="506" cy="354" rx="6" ry="10" fill="none" stroke="#8A8C94" stroke-width="3"/><g filter="url(#c9glow)"><path d="M455,296 L462,278 L469,296 Z" fill="#C890FF"/></g><g filter="url(#c9glow)"><path d="M479,296 L486,278 L493,296 Z" fill="#C890FF"/></g><g filter="url(#c9glow)"><path d="M503,296 L510,278 L517,296 Z" fill="#C890FF"/></g><text x="20" y="36" font-family="Georgia, serif" font-size="26" fill="#efe3c2">Vault Breaker</text></svg>