<svg xmlns="http://www.w3.org/2000/svg" viewBox="0 0 600 450" width="600" height="450"><defs><filter id="c3glow" x="-50%" y="-50%" width="200%" height="200%"><feGaussianBlur stdDeviation="4" result="b"/><feMerge><feMergeNode in="b"/><feMergeNode in="b"/><feMergeNode in="SourceGraphic"/></feMerge></filter><radialGradient id="c3bg" cx="50%" cy="40%" r="75%"><stop offset="0" stop-color="#3a4a3c"/><stop offset="1" stop-color="#18201a"/></radialGradient><radialGradient id="c3g1" cx="35%" cy="28%" r="80%"><stop offset="0" stop-color="#F08A50"/><stop offset=".45" stop-color="#B8492C"/><stop offset="1" stop-color="#5A1C10"/></radialGradient><radialGradient id="c3g2" cx="35%" cy="28%" r="80%"><stop offset="0" stop-color="#FFF8EA"/><stop offset=".45" stop-color="#EADFC8"/><stop offset="1" stop-color="#A89878"/></radialGradient></defs><rect width="600" height="450" fill="url(#c3bg)"/><rect y="392" width="600" height="58" fill="#2a2a20" opacity=".6"/><ellipse cx="300" cy="392" rx="200" ry="14" fill="#000" opacity=".28"/><path d="M205,250 L170,305" fill="none" stroke="#1c1224" stroke-width="20.833333333333336" stroke-linejoin="round" stroke-linecap="round" /><path d="M205,250 L170,305" fill="none" stroke="#7A2A18" stroke-width="14.833333333333334" stroke-linejoin="round" stroke-linecap="round" /><path d="M170,305 L160,340" fill="none" stroke="#1c1224" stroke-width="18.5" stroke-linejoin="round" stroke-linecap="round" /><path d="M170,305 L160,340" fill="none" stroke="#7A2A18" stroke-width="12.5" stroke-linejoin="round" stroke-linecap="round" /><path d="M160,340 L178,386" fill="none" stroke="#1c1224" stroke-width="16.166666666666668" stroke-linejoin="round" stroke-linecap="round" /><path d="M160,340 L178,386" fill="none" stroke="#7A2A18" stroke-width="10.166666666666668" stroke-linejoin="round" stroke-linecap="round" /><path d="M345,262 L338,322" fill="none" stroke="#1c1224" stroke-width="19.5" stroke-linejoin="round" stroke-linecap="round" /><path d="M345,262 L338,322" fill="none" stroke="#7A2A18" stroke-width="13.5" stroke-linejoin="round" stroke-linecap="round" /><path d="M338,322 L330,386" fill="none" stroke="#1c1224" stroke-width="16.5" stroke-linejoin="round" stroke-linecap="round" /><path d="M338,322 L330,386" fill="none" stroke="#7A2A18" stroke-width="10.5" stroke-linejoin="round" stroke-linecap="round" /><path d="M150,232 C120,210 96,170 78,140" fill="none" stroke="#1c1224" stroke-width="0" stroke-linejoin="round" stroke-linecap="round" /><path d="M150,228 C118,208 98,176 84,146" fill="none" stroke="#1c1224" stroke-width="18" stroke-linejoin="round" stroke-linecap="round" /><path d="M150,228 C118,208 98,176 84,146" fill="none" stroke="#B8492C" stroke-width="12" stroke-linejoin="round" stroke-linecap="round" /><g filter="url(#c3glow)"><path d="M84,150 C60,140 58,110 76,86 C74,108 92,104 90,84 C104,104 104,130 84,150 Z" fill="#FF8A2A"/><path d="M84,142 C72,132 74,116 82,104 C84,118 94,122 84,142 Z" fill="#FFE070"/></g><path d="M140,236 C136,194 186,176 236,190 C282,202 300,168 352,160 C404,152 426,196 416,246 C408,284 372,294 342,284 C302,272 262,266 232,278 C192,292 146,280 140,236 Z" fill="url(#c3g1)" stroke="#1c1224" stroke-width="3" stroke-linejoin="round" stroke-linecap="round" /><path d="M236,262 C270,250 316,262 348,280 C320,290 280,282 240,286 Z" fill="#EAC08A" stroke="#1c1224" stroke-width="0" stroke-linejoin="round" stroke-linecap="round" /><path d="M180,182.0 C190,205 178,225 188,245 C174,226 170,205 174,186 Z" fill="#2E0F0A" stroke="#1c1224" stroke-width="0" stroke-linejoin="round" stroke-linecap="round" /><path d="M208,179.2 C218,205 206,225 216,245 C202,226 198,205 202,186 Z" fill="#2E0F0A" stroke="#1c1224" stroke-width="0" stroke-linejoin="round" stroke-linecap="round" /><path d="M238,176.2 C248,205 236,225 246,245 C232,226 228,205 232,186 Z" fill="#2E0F0A" stroke="#1c1224" stroke-width="0" stroke-linejoin="round" stroke-linecap="round" /><path d="M268,173.2 C278,205 266,225 276,245 C262,226 258,205 262,186 Z" fill="#2E0F0A" stroke="#1c1224" stroke-width="0" stroke-linejoin="round" stroke-linecap="round" /><path d="M300,170.0 C310,205 298,225 308,245 C294,226 290,205 294,186 Z" fill="#2E0F0A" stroke="#1c1224" stroke-width="0" stroke-linejoin="round" stroke-linecap="round" /><path d="M330,167.0 C340,205 328,225 338,245 C324,226 320,205 324,186 Z" fill="#2E0F0A" stroke="#1c1224" stroke-width="0" stroke-linejoin="round" stroke-linecap="round" /><path d="M362,163.8 C372,205 360,225 370,245 C356,226 352,205 356,186 Z" fill="#2E0F0A" stroke="#1c1224" stroke-width="0" stroke-linejoin="round" stroke-linecap="round" /><path d="M326,178 L332,140 L342,176 Z" fill="#3A1810" stroke="#1c1224" stroke-width="2.5" stroke-linejoin="round" stroke-linecap="round" /><g filter="url(#c3glow)"><path d="M329.5,158 L332,140 L337,158 Z" fill="#FF8A2A"/></g><path d="M339,172 L345,134 L355,170 Z" fill="#3A1810" stroke="#1c1224" stroke-width="2.5" stroke-linejoin="round" stroke-linecap="round" /><g filter="url(#c3glow)"><path d="M342.5,152 L345,134 L350,152 Z" fill="#FF8A2A"/></g><path d="M352,166 L358,128 L368,164 Z" fill="#3A1810" stroke="#1c1224" stroke-width="2.5" stroke-linejoin="round" stroke-linecap="round" /><g filter="url(#c3glow)"><path d="M355.5,146 L358,128 L363,146 Z" fill="#FF8A2A"/></g><path d="M365,160 L371,122 L381,158 Z" fill="#3A1810" stroke="#1c1224" stroke-width="2.5" stroke-linejoin="round" stroke-linecap="round" /><g filter="url(#c3glow)"><path d="M368.5,140 L371,122 L376,140 Z" fill="#FF8A2A"/></g><path d="M378,154 L384,116 L394,152 Z" fill="#3A1810" stroke="#1c1224" stroke-width="2.5" stroke-linejoin="round" stroke-linecap="round" /><g filter="url(#c3glow)"><path d="M381.5,134 L384,116 L389,134 Z" fill="#FF8A2A"/></g><path d="M391,148 L397,110 L407,146 Z" fill="#3A1810" stroke="#1c1224" stroke-width="2.5" stroke-linejoin="round" stroke-linecap="round" /><g filter="url(#c3glow)"><path d="M394.5,128 L397,110 L402,128 Z" fill="#FF8A2A"/></g><path d="M404,142 L410,104 L420,140 Z" fill="#3A1810" stroke="#1c1224" stroke-width="2.5" stroke-linejoin="round" stroke-linecap="round" /><g filter="url(#c3glow)"><path d="M407.5,122 L410,104 L415,122 Z" fill="#FF8A2A"/></g><path d="M372,168 C380,196 392,214 406,222" fill="none" stroke="#1c1224" stroke-width="12" stroke-linejoin="round" stroke-linecap="round" /><path d="M372,168 C380,196 392,214 406,222" fill="none" stroke="#4A3222" stroke-width="7" stroke-linejoin="round" stroke-linecap="round" /><path d="M376,186 l10,-4 l-4,10 Z" fill="#C8C8D0" stroke="#1c1224" stroke-width="1.5" stroke-linejoin="round" stroke-linecap="round" /><path d="M385,196 l10,-4 l-4,10 Z" fill="#C8C8D0" stroke="#1c1224" stroke-width="1.5" stroke-linejoin="round" stroke-linecap="round" /><path d="M394,206 l10,-4 l-4,10 Z" fill="#C8C8D0" stroke="#1c1224" stroke-width="1.5" stroke-linejoin="round" stroke-linecap="round" /><path d="M403,216 l10,-4 l-4,10 Z" fill="#C8C8D0" stroke="#1c1224" stroke-width="1.5" stroke-linejoin="round" stroke-linecap="round" /><path d="M392,172 C418,148 464,152 486,168 L534,184 C546,190 544,206 530,212 L474,218 C442,228 404,216 394,196 Z" fill="url(#c3g1)" stroke="#1c1224" stroke-width="3" stroke-linejoin="round" stroke-linecap="round" /><path d="M470,214 L528,212 C522,226 496,236 470,232 Z" fill="#3A1810" stroke="#1c1224" stroke-width="2.5" stroke-linejoin="round" stroke-linecap="round" /><g filter="url(#c3glow)"><path d="M478,218 L520,214 C512,224 494,228 478,226 Z" fill="#FF6A2A"/></g><path d="M484,212 l3,9 l3,-9 Z" fill="#F4ECDC" stroke="#1c1224" stroke-width="1.2" stroke-linejoin="round" stroke-linecap="round" /><path d="M496,212 l3,9 l3,-9 Z" fill="#F4ECDC" stroke="#1c1224" stroke-width="1.2" stroke-linejoin="round" stroke-linecap="round" /><path d="M508,212 l3,9 l3,-9 Z" fill="#F4ECDC" stroke="#1c1224" stroke-width="1.2" stroke-linejoin="round" stroke-linecap="round" /><path d="M518,212 l3,9 l3,-9 Z" fill="#F4ECDC" stroke="#1c1224" stroke-width="1.2" stroke-linejoin="round" stroke-linecap="round" /><path d="M402,176 C428,152 470,160 492,176 L474,188 C452,180 426,182 404,194 Z" fill="url(#c3g2)" stroke="#1c1224" stroke-width="2.5" stroke-linejoin="round" stroke-linecap="round" /><path d="M430,168 l8,10 M450,164 l4,12" fill="none" stroke="#8A7A5A" stroke-width="1.8" stroke-linejoin="round" stroke-linecap="round" /><circle cx="534.0" cy="194.0" r="6.0" fill="#151010" stroke="#1c1224" stroke-width="2" /><path d="M430,160 C412,120 380,96 344,96 C372,110 396,132 414,170 Z" fill="url(#c3g2)" stroke="#1c1224" stroke-width="2.5" stroke-linejoin="round" stroke-linecap="round" /><path d="M452,158 C446,126 424,100 396,90 C418,110 432,134 436,164 Z" fill="url(#c3g2)" stroke="#1c1224" stroke-width="2.5" stroke-linejoin="round" stroke-linecap="round" /><path d="M366,103 l6,6" fill="none" stroke="#8A7A5A" stroke-width="2" stroke-linejoin="round" stroke-linecap="round" /><path d="M378,109 l6,6" fill="none" stroke="#8A7A5A" stroke-width="2" stroke-linejoin="round" stroke-linecap="round" /><path d="M390,115 l6,6" fill="none" stroke="#8A7A5A" stroke-width="2" stroke-linejoin="round" stroke-linecap="round" /><path d="M402,121 l6,6" fill="none" stroke="#8A7A5A" stroke-width="2" stroke-linejoin="round" stroke-linecap="round" /><path d="M408,176 L396,148 L422,168 Z" fill="#3A1810" stroke="#1c1224" stroke-width="2.5" stroke-linejoin="round" stroke-linecap="round" /><g filter="url(#c3glow)"><path d="M458,180 L476,176 L470,186 Z" fill="#FFB03A"/></g><path d="M214,246 L188,300" fill="none" stroke="#1c1224" stroke-width="24.333333333333332" stroke-linejoin="round" stroke-linecap="round" /><path d="M214,246 L188,300" fill="none" stroke="#B8492C" stroke-width="18.333333333333332" stroke-linejoin="round" stroke-linecap="round" /><path d="M188,300 L172,336" fill="none" stroke="#1c1224" stroke-width="21.0" stroke-linejoin="round" stroke-linecap="round" /><path d="M188,300 L172,336" fill="none" stroke="#B8492C" stroke-width="15.0" stroke-linejoin="round" stroke-linecap="round" /><path d="M172,336 L196,386" fill="none" stroke="#1c1224" stroke-width="17.666666666666664" stroke-linejoin="round" stroke-linecap="round" /><path d="M172,336 L196,386" fill="none" stroke="#B8492C" stroke-width="11.666666666666666" stroke-linejoin="round" stroke-linecap="round" /><path d="M356,256 L362,322" fill="none" stroke="#1c1224" stroke-width="22.75" stroke-linejoin="round" stroke-linecap="round" /><path d="M356,256 L362,322" fill="none" stroke="#B8492C" stroke-width="16.75" stroke-linejoin="round" stroke-linecap="round" /><path d="M362,322 L372,386" fill="none" stroke="#1c1224" stroke-width="18.25" stroke-linejoin="round" stroke-linecap="round" /><path d="M362,322 L372,386" fill="none" stroke="#B8492C" stroke-width="12.25" stroke-linejoin="round" stroke-linecap="round" /><ellipse cx="204.0" cy="386.0" rx="16.0" ry="7.0" transform="rotate(0 204.0 386.0)" fill="#3A1810" stroke="#1c1224" stroke-width="2.5" /><ellipse cx="380.0" cy="386.0" rx="16.0" ry="7.0" transform="rotate(0 380.0 386.0)" fill="#3A1810" stroke="#1c1224" stroke-width="2.5" /><text x="20" y="36" font-family="Georgia, serif" font-size="26" fill="#efe3c2">Cinder Hound</text></svg>