<svg xmlns="http://www.w3.org/2000/svg" viewBox="0 0 600 450" width="600" height="450"><defs><filter id="c2glow" x="-50%" y="-50%" width="200%" height="200%"><feGaussianBlur stdDeviation="4" result="b"/><feMerge><feMergeNode in="b"/><feMergeNode in="b"/><feMergeNode in="SourceGraphic"/></feMerge></filter><radialGradient id="c2bg" cx="50%" cy="40%" r="75%"><stop offset="0" stop-color="#3a4a3c"/><stop offset="1" stop-color="#18201a"/></radialGradient><radialGradient id="c2g1" cx="35%" cy="28%" r="80%"><stop offset="0" stop-color="#5A3A78"/><stop offset=".45" stop-color="#241430"/><stop offset="1" stop-color="#07030C"/></radialGradient><radialGradient id="c2g2" cx="35%" cy="28%" r="80%"><stop offset="0" stop-color="#5A4870"/><stop offset=".45" stop-color="#2E2238"/><stop offset="1" stop-color="#110A18"/></radialGradient><radialGradient id="c2g3" cx="35%" cy="28%" r="80%"><stop offset="0" stop-color="#5A4870"/><stop offset=".45" stop-color="#3A2A48"/><stop offset="1" stop-color="#140C1C"/></radialGradient></defs><rect width="600" height="450" fill="url(#c2bg)"/><rect y="392" width="600" height="58" fill="#2a2a20" opacity=".6"/><ellipse cx="330" cy="392" rx="220" ry="14" fill="#000" opacity=".28"/><path d="M380,282 L498,214" fill="none" stroke="#1c1224" stroke-width="16.0" stroke-linejoin="round" stroke-linecap="round" /><path d="M380,282 L498,214" fill="none" stroke="#140E1C" stroke-width="10.0" stroke-linejoin="round" stroke-linecap="round" /><path d="M498,214 L538.7,300.9" fill="none" stroke="#1c1224" stroke-width="13.5" stroke-linejoin="round" stroke-linecap="round" /><path d="M498,214 L538.7,300.9" fill="none" stroke="#140E1C" stroke-width="7.5" stroke-linejoin="round" stroke-linecap="round" /><path d="M538.7,300.9 L572,372" fill="none" stroke="#1c1224" stroke-width="10.5" stroke-linejoin="round" stroke-linecap="round" /><path d="M538.7,300.9 L572,372" fill="none" stroke="#8A7A9A" stroke-width="4.5" stroke-linejoin="round" stroke-linecap="round" /><circle cx="498.0" cy="214.0" r="7.0" fill="#5A3A8A" stroke="#1c1224" stroke-width="2.5" /><circle cx="538.7" cy="300.9" r="5.0" fill="#5A3A8A" stroke="#1c1224" stroke-width="2" /><path d="M362,284 L446,214" fill="none" stroke="#1c1224" stroke-width="16.0" stroke-linejoin="round" stroke-linecap="round" /><path d="M362,284 L446,214" fill="none" stroke="#140E1C" stroke-width="10.0" stroke-linejoin="round" stroke-linecap="round" /><path d="M446,214 L475.7,302.0" fill="none" stroke="#1c1224" stroke-width="13.5" stroke-linejoin="round" stroke-linecap="round" /><path d="M446,214 L475.7,302.0" fill="none" stroke="#140E1C" stroke-width="7.5" stroke-linejoin="round" stroke-linecap="round" /><path d="M475.7,302.0 L500,374" fill="none" stroke="#1c1224" stroke-width="10.5" stroke-linejoin="round" stroke-linecap="round" /><path d="M475.7,302.0 L500,374" fill="none" stroke="#8A7A9A" stroke-width="4.5" stroke-linejoin="round" stroke-linecap="round" /><circle cx="446.0" cy="214.0" r="7.0" fill="#5A3A8A" stroke="#1c1224" stroke-width="2.5" /><circle cx="475.7" cy="302.0" r="5.0" fill="#5A3A8A" stroke="#1c1224" stroke-width="2" /><path d="M332,287 L262,214" fill="none" stroke="#1c1224" stroke-width="16.0" stroke-linejoin="round" stroke-linecap="round" /><path d="M332,287 L262,214" fill="none" stroke="#140E1C" stroke-width="10.0" stroke-linejoin="round" stroke-linecap="round" /><path d="M262,214 L234.5,302.0" fill="none" stroke="#1c1224" stroke-width="13.5" stroke-linejoin="round" stroke-linecap="round" /><path d="M262,214 L234.5,302.0" fill="none" stroke="#140E1C" stroke-width="7.5" stroke-linejoin="round" stroke-linecap="round" /><path d="M234.5,302.0 L212,374" fill="none" stroke="#1c1224" stroke-width="10.5" stroke-linejoin="round" stroke-linecap="round" /><path d="M234.5,302.0 L212,374" fill="none" stroke="#8A7A9A" stroke-width="4.5" stroke-linejoin="round" stroke-linecap="round" /><circle cx="262.0" cy="214.0" r="7.0" fill="#5A3A8A" stroke="#1c1224" stroke-width="2.5" /><circle cx="234.5" cy="302.0" r="5.0" fill="#5A3A8A" stroke="#1c1224" stroke-width="2" /><path d="M318,290 L198,222" fill="none" stroke="#1c1224" stroke-width="16.0" stroke-linejoin="round" stroke-linecap="round" /><path d="M318,290 L198,222" fill="none" stroke="#140E1C" stroke-width="10.0" stroke-linejoin="round" stroke-linecap="round" /><path d="M198,222 L148.5,304.5" fill="none" stroke="#1c1224" stroke-width="13.5" stroke-linejoin="round" stroke-linecap="round" /><path d="M198,222 L148.5,304.5" fill="none" stroke="#140E1C" stroke-width="7.5" stroke-linejoin="round" stroke-linecap="round" /><path d="M148.5,304.5 L108,372" fill="none" stroke="#1c1224" stroke-width="10.5" stroke-linejoin="round" stroke-linecap="round" /><path d="M148.5,304.5 L108,372" fill="none" stroke="#8A7A9A" stroke-width="4.5" stroke-linejoin="round" stroke-linecap="round" /><circle cx="198.0" cy="222.0" r="7.0" fill="#5A3A8A" stroke="#1c1224" stroke-width="2.5" /><circle cx="148.5" cy="304.5" r="5.0" fill="#5A3A8A" stroke="#1c1224" stroke-width="2" /><path d="M372,292 L472,180" fill="none" stroke="#1c1224" stroke-width="16.0" stroke-linejoin="round" stroke-linecap="round" /><path d="M372,292 L472,180" fill="none" stroke="#2E2240" stroke-width="10.0" stroke-linejoin="round" stroke-linecap="round" /><path d="M472,180 L513.8,294.4" fill="none" stroke="#1c1224" stroke-width="13.5" stroke-linejoin="round" stroke-linecap="round" /><path d="M472,180 L513.8,294.4" fill="none" stroke="#2E2240" stroke-width="7.5" stroke-linejoin="round" stroke-linecap="round" /><path d="M513.8,294.4 L548,388" fill="none" stroke="#1c1224" stroke-width="10.5" stroke-linejoin="round" stroke-linecap="round" /><path d="M513.8,294.4 L548,388" fill="none" stroke="#E6D6F4" stroke-width="4.5" stroke-linejoin="round" stroke-linecap="round" /><circle cx="472.0" cy="180.0" r="7.0" fill="#A866E8" stroke="#1c1224" stroke-width="2.5" /><circle cx="513.8" cy="294.4" r="5.0" fill="#A866E8" stroke="#1c1224" stroke-width="2" /><path d="M356,296 L420,196" fill="none" stroke="#1c1224" stroke-width="16.0" stroke-linejoin="round" stroke-linecap="round" /><path d="M356,296 L420,196" fill="none" stroke="#2E2240" stroke-width="10.0" stroke-linejoin="round" stroke-linecap="round" /><path d="M420,196 L447.5,303.8" fill="none" stroke="#1c1224" stroke-width="13.5" stroke-linejoin="round" stroke-linecap="round" /><path d="M420,196 L447.5,303.8" fill="none" stroke="#2E2240" stroke-width="7.5" stroke-linejoin="round" stroke-linecap="round" /><path d="M447.5,303.8 L470,392" fill="none" stroke="#1c1224" stroke-width="10.5" stroke-linejoin="round" stroke-linecap="round" /><path d="M447.5,303.8 L470,392" fill="none" stroke="#E6D6F4" stroke-width="4.5" stroke-linejoin="round" stroke-linecap="round" /><circle cx="420.0" cy="196.0" r="7.0" fill="#A866E8" stroke="#1c1224" stroke-width="2.5" /><circle cx="447.5" cy="303.8" r="5.0" fill="#A866E8" stroke="#1c1224" stroke-width="2" /><path d="M336,300 L292,192" fill="none" stroke="#1c1224" stroke-width="16.0" stroke-linejoin="round" stroke-linecap="round" /><path d="M336,300 L292,192" fill="none" stroke="#2E2240" stroke-width="10.0" stroke-linejoin="round" stroke-linecap="round" /><path d="M292,192 L270.0,302.0" fill="none" stroke="#1c1224" stroke-width="13.5" stroke-linejoin="round" stroke-linecap="round" /><path d="M292,192 L270.0,302.0" fill="none" stroke="#2E2240" stroke-width="7.5" stroke-linejoin="round" stroke-linecap="round" /><path d="M270.0,302.0 L252,392" fill="none" stroke="#1c1224" stroke-width="10.5" stroke-linejoin="round" stroke-linecap="round" /><path d="M270.0,302.0 L252,392" fill="none" stroke="#E6D6F4" stroke-width="4.5" stroke-linejoin="round" stroke-linecap="round" /><circle cx="292.0" cy="192.0" r="7.0" fill="#A866E8" stroke="#1c1224" stroke-width="2.5" /><circle cx="270.0" cy="302.0" r="5.0" fill="#A866E8" stroke="#1c1224" stroke-width="2" /><path d="M324,302 L236,198" fill="none" stroke="#1c1224" stroke-width="16.0" stroke-linejoin="round" stroke-linecap="round" /><path d="M324,302 L236,198" fill="none" stroke="#2E2240" stroke-width="10.0" stroke-linejoin="round" stroke-linecap="round" /><path d="M236,198 L194.2,303.6" fill="none" stroke="#1c1224" stroke-width="13.5" stroke-linejoin="round" stroke-linecap="round" /><path d="M236,198 L194.2,303.6" fill="none" stroke="#2E2240" stroke-width="7.5" stroke-linejoin="round" stroke-linecap="round" /><path d="M194.2,303.6 L160,390" fill="none" stroke="#1c1224" stroke-width="10.5" stroke-linejoin="round" stroke-linecap="round" /><path d="M194.2,303.6 L160,390" fill="none" stroke="#E6D6F4" stroke-width="4.5" stroke-linejoin="round" stroke-linecap="round" /><circle cx="236.0" cy="198.0" r="7.0" fill="#A866E8" stroke="#1c1224" stroke-width="2.5" /><circle cx="194.2" cy="303.6" r="5.0" fill="#A866E8" stroke="#1c1224" stroke-width="2" /><ellipse cx="208.0" cy="222.0" rx="118.0" ry="90.0" transform="rotate(-14 208.0 222.0)" fill="url(#c2g1)" stroke="#1c1224" stroke-width="3" /><g filter="url(#c2glow)"><path d="M150,170 C180,200 170,240 200,260 M200,260 C230,240 260,250 280,230 M170,250 C190,290 240,300 250,280 M130,220 C150,230 160,260 150,290 M230,160 C230,190 250,200 270,196" fill="none" stroke="#B45CFF" stroke-width="3"/></g><g filter="url(#c2glow)"><path d="M200,142 L226,156 L200,170 L212,156 Z M232,150 L258,160 L232,172 L244,160 Z" fill="#FF3A6A"/></g><path d="M140,160 l-4,-14" fill="none" stroke="#6A4A8A" stroke-width="2" stroke-linejoin="round" stroke-linecap="round" /><path d="M170,138 l-4,-14" fill="none" stroke="#6A4A8A" stroke-width="2" stroke-linejoin="round" stroke-linecap="round" /><path d="M260,150 l-4,-14" fill="none" stroke="#6A4A8A" stroke-width="2" stroke-linejoin="round" stroke-linecap="round" /><path d="M290,180 l-4,-14" fill="none" stroke="#6A4A8A" stroke-width="2" stroke-linejoin="round" stroke-linecap="round" /><path d="M120,200 l-4,-14" fill="none" stroke="#6A4A8A" stroke-width="2" stroke-linejoin="round" stroke-linecap="round" /><ellipse cx="340.0" cy="280.0" rx="62.0" ry="42.0" transform="rotate(-6 340.0 280.0)" fill="url(#c2g2)" stroke="#1c1224" stroke-width="3" /><ellipse cx="404.0" cy="286.0" rx="36.0" ry="31.0" transform="rotate(0 404.0 286.0)" fill="url(#c2g3)" stroke="#1c1224" stroke-width="3" /><path d="M414,306 C424,322 426,336 416,348 C432,336 436,318 426,302 Z" fill="#EADCC8" stroke="#1c1224" stroke-width="2.5" stroke-linejoin="round" stroke-linecap="round" /><path d="M398,308 C404,324 402,338 392,346 C410,338 414,322 410,304 Z" fill="#EADCC8" stroke="#1c1224" stroke-width="2.5" stroke-linejoin="round" stroke-linecap="round" /><g filter="url(#c2glow)"><circle cx="418" cy="276" r="8.5" fill="#FF3A2A"/><circle cx="418" cy="276" r="3.8" fill="#FFD0C0" opacity=".85"/></g><g filter="url(#c2glow)"><circle cx="402" cy="272" r="7.5" fill="#FF3A2A"/><circle cx="402" cy="272" r="3.4" fill="#FFD0C0" opacity=".85"/></g><g filter="url(#c2glow)"><circle cx="430" cy="284" r="5" fill="#FF3A2A"/><circle cx="430" cy="284" r="2.2" fill="#FFD0C0" opacity=".85"/></g><g filter="url(#c2glow)"><circle cx="392" cy="282" r="4.5" fill="#FF3A2A"/><circle cx="392" cy="282" r="2.0" fill="#FFD0C0" opacity=".85"/></g><g filter="url(#c2glow)"><circle cx="410" cy="262" r="4" fill="#FF3A2A"/><circle cx="410" cy="262" r="1.8" fill="#FFD0C0" opacity=".85"/></g><g filter="url(#c2glow)"><circle cx="426" cy="266" r="4" fill="#FF3A2A"/><circle cx="426" cy="266" r="1.8" fill="#FFD0C0" opacity=".85"/></g><text x="20" y="36" font-family="Georgia, serif" font-size="26" fill="#efe3c2">Skitterling</text></svg>